<?xml version="1.0" encoding="UTF-8" standalone="no"?>
<svg
   xmlns:dc="http://purl.org/dc/elements/1.1/"
   xmlns:cc="http://creativecommons.org/ns#"
   xmlns:rdf="http://www.w3.org/1999/02/22-rdf-syntax-ns#"
   xmlns:svg="http://www.w3.org/2000/svg"
   xmlns="http://www.w3.org/2000/svg"
   xmlns:xlink="http://www.w3.org/1999/xlink"
   xmlns:sodipodi="http://sodipodi.sourceforge.net/DTD/sodipodi-0.dtd"
   xmlns:inkscape="http://www.inkscape.org/namespaces/inkscape"
   width="432pt"
   height="288pt"
   viewBox="0 0 432 288"
   version="1.1"
   id="svg200"
   sodipodi:docname="CUptake_30.svg"
   inkscape:version="1.0.2-2 (e86c870879, 2021-01-15)"
   inkscape:export-filename="C:\Users\Andrew Freiburger\Documents\Argonne\ModelSEED\ModelSEEDpy\examples\Community Modeling\MSCommunity\CUptake_30.png"
   inkscape:export-xdpi="350"
   inkscape:export-ydpi="350">
  <sodipodi:namedview
     pagecolor="#ffffff"
     bordercolor="#666666"
     borderopacity="1"
     objecttolerance="10"
     gridtolerance="10"
     guidetolerance="10"
     inkscape:pageopacity="0"
     inkscape:pageshadow="2"
     inkscape:window-width="1641"
     inkscape:window-height="1037"
     id="namedview202"
     showgrid="false"
     inkscape:zoom="1.3865922"
     inkscape:cx="326.39149"
     inkscape:cy="179.85414"
     inkscape:window-x="0"
     inkscape:window-y="0"
     inkscape:window-maximized="0"
     inkscape:current-layer="svg200" />
  <metadata
     id="metadata2">
    <rdf:RDF>
      <cc:Work>
        <dc:type
           rdf:resource="http://purl.org/dc/dcmitype/StillImage" />
        <dc:date>2022-10-18T09:26:28.929174</dc:date>
        <dc:format>image/svg+xml</dc:format>
        <dc:creator>
          <cc:Agent>
            <dc:title>Matplotlib v3.5.2, https://matplotlib.org/</dc:title>
          </cc:Agent>
        </dc:creator>
      </cc:Work>
    </rdf:RDF>
  </metadata>
  <defs
     id="defs6">
    <style
       type="text/css"
       id="style4">*{stroke-linejoin: round; stroke-linecap: butt}</style>
    <clipPath
       clipPathUnits="userSpaceOnUse"
       id="clipPath1366">
      <rect
         style="fill:none;stroke:#e9f300;stroke-width:0.850395;stroke-linecap:round;paint-order:stroke markers fill"
         id="rect1368"
         width="334.79999"
         height="217.44"
         x="54"
         y="34.560001" />
    </clipPath>
  </defs>
  <g
     id="matplotlib.axis_1">
    <g
       id="xtick_1" />
    <g
       id="xtick_2" />
    <g
       id="xtick_3" />
    <g
       id="xtick_4" />
    <g
       id="xtick_5" />
  </g>
  <g
     id="matplotlib.axis_2">
    <g
       id="ytick_1" />
    <g
       id="ytick_2" />
    <g
       id="ytick_3" />
    <g
       id="ytick_4" />
    <g
       id="ytick_5" />
  </g>
  <g
     id="g1362"
     clip-path="url(#clipPath1366)">
    <g
       id="patch_1">
      <path
         d="M 0,288 H 432 V 0 H 0 Z"
         style="fill:none"
         id="path8" />
    </g>
    <g
       id="patch_2">
      <path
         d="M 54,252 H 388.8 V 34.56 H 54 Z"
         style="fill:#ffffff"
         id="path11" />
    </g>
    <g
       id="LineCollection_1">
      <path
         d="M 359.74711,53.42876 83.052893,233.13124"
         clip-path="url(#pcede6799f0)"
         style="fill:none;stroke:#000000"
         id="path14" />
    </g>
    <g
       id="text_1">
      <g
         id="patch_3">
        <path
           d="m 216.33318,155.91795 18.67306,-12.12745 q 2.51595,-1.63401 0.88194,-4.14996 l -5.2714,-8.11656 q -1.63402,-2.51594 -4.14996,-0.88193 l -18.67306,12.12745 q -2.51595,1.63401 -0.88194,4.14996 l 5.2714,8.11656 q 1.63401,2.51594 4.14996,0.88193 z"
           clip-path="url(#pcede6799f0)"
           style="fill:#ffffff;stroke:#ffffff;stroke-linejoin:miter"
           id="path17" />
      </g>
      <g
         clip-path="url(#pcede6799f0)"
         id="g36">
        <!-- 4.26 -->
        <g
           transform="matrix(0.08386496,-0.05446713,-0.05446713,-0.08386496,213.56642,151.65787)"
           id="g34">
          <defs
             id="defs24">
            <path
               id="DejaVuSans-34"
               d="M 2419,4116 825,1625 h 1594 z m -166,550 h 794 V 1625 h 666 V 1100 H 3047 V 0 H 2419 V 1100 H 313 v 609 z"
               transform="scale(0.015625)" />
            <path
               id="DejaVuSans-2e"
               d="m 684,794 h 660 V 0 H 684 Z"
               transform="scale(0.015625)" />
            <path
               id="DejaVuSans-32"
               d="M 1228,531 H 3431 V 0 H 469 v 531 q 359,372 979,998 621,627 780,809 303,340 423,576 121,236 121,464 0,372 -261,606 -261,235 -680,235 -297,0 -627,-103 -329,-103 -704,-313 v 638 q 381,153 712,231 332,78 607,78 725,0 1156,-363 431,-362 431,-968 0,-288 -108,-546 -107,-257 -392,-607 -78,-91 -497,-524 Q 1991,1309 1228,531 Z"
               transform="scale(0.015625)" />
            <path
               id="DejaVuSans-36"
               d="m 2113,2584 q -425,0 -674,-291 -248,-290 -248,-796 0,-503 248,-796 249,-292 674,-292 425,0 673,292 248,293 248,796 0,506 -248,796 -248,291 -673,291 z m 1253,1979 v -575 q -238,112 -480,171 -242,60 -480,60 -625,0 -955,-422 -329,-422 -376,-1275 184,272 462,417 279,145 613,145 703,0 1111,-427 408,-426 408,-1160 0,-719 -425,-1154 -425,-434 -1131,-434 -810,0 -1238,620 -428,621 -428,1799 0,1106 525,1764 525,658 1409,658 238,0 480,-47 242,-47 505,-140 z"
               transform="scale(0.015625)" />
          </defs>
          <use
             xlink:href="#DejaVuSans-34"
             id="use26"
             x="0"
             y="0"
             width="100%"
             height="100%" />
          <use
             xlink:href="#DejaVuSans-2e"
             x="63.623047"
             id="use28"
             y="0"
             width="100%"
             height="100%" />
          <use
             xlink:href="#DejaVuSans-32"
             x="95.410156"
             id="use30"
             y="0"
             width="100%"
             height="100%" />
          <use
             xlink:href="#DejaVuSans-36"
             x="159.0332"
             id="use32"
             y="0"
             width="100%"
             height="100%" />
        </g>
      </g>
    </g>
    <g
       id="PathCollection_1">
      <defs
         id="defs52">
        <path
           id="m1b91212aed"
           d="m 0,8.660254 c 2.296726,0 4.499694,-0.912499 6.123724,-2.53653 C 7.747755,4.499694 8.660254,2.296726 8.660254,0 c 0,-2.296726 -0.912499,-4.499694 -2.53653,-6.123724 C 4.499694,-7.747755 2.296726,-8.660254 0,-8.660254 c -2.296726,0 -4.499694,0.912499 -6.123724,2.53653 -1.624031,1.62403 -2.53653,3.826998 -2.53653,6.123724 0,2.296726 0.912499,4.499694 2.53653,6.123724 1.62403,1.624031 3.826998,2.53653 6.123724,2.53653 z"
           style="stroke:#1f78b4" />
      </defs>
      <g
         clip-path="url(#pcede6799f0)"
         id="g58">
        <use
           xlink:href="#m1b91212aed"
           x="359.7471"
           y="53.428761"
           style="fill:#1f78b4;stroke:#1f78b4"
           id="use54"
           width="100%"
           height="100%" />
        <use
           xlink:href="#m1b91212aed"
           x="83.052895"
           y="233.13124"
           style="fill:#1f78b4;stroke:#1f78b4"
           id="use56"
           width="100%"
           height="100%" />
      </g>
    </g>
    <g
       id="patch_4">
      <path
         d="M 54,252 V 34.56"
         style="fill:none;stroke:#000000;stroke-width:0.8;stroke-linecap:square;stroke-linejoin:miter"
         id="path61" />
    </g>
    <g
       id="patch_5">
      <path
         d="M 388.8,252 V 34.56"
         style="fill:none;stroke:#000000;stroke-width:0.8;stroke-linecap:square;stroke-linejoin:miter"
         id="path64" />
    </g>
    <g
       id="patch_6">
      <path
         d="M 54,252 H 388.8"
         style="fill:none;stroke:#000000;stroke-width:0.8;stroke-linecap:square;stroke-linejoin:miter"
         id="path67" />
    </g>
    <g
       id="patch_7">
      <path
         d="M 54,34.56 H 388.8"
         style="fill:none;stroke:#000000;stroke-width:0.8;stroke-linecap:square;stroke-linejoin:miter"
         id="path70" />
    </g>
    <g
       id="text_2"
       transform="translate(-103.31084,8.6543109)">
      <!-- Pyruvate -->
      <g
         transform="matrix(0.1,0,0,-0.1,380.49917,42.230948)"
         id="g99">
        <defs
           id="defs81">
          <path
             id="DejaVuSans-50"
             d="M 1259,4147 V 2394 h 794 q 441,0 681,228 241,228 241,650 0,419 -241,647 -240,228 -681,228 z m -631,519 h 1425 q 785,0 1186,-355 402,-355 402,-1039 0,-691 -402,-1044 -401,-353 -1186,-353 H 1259 V 0 H 628 Z"
             transform="scale(0.015625)" />
          <path
             id="DejaVuSans-79"
             d="m 2059,-325 q -243,-625 -475,-815 -231,-191 -618,-191 H 506 v 481 h 338 q 237,0 368,113 132,112 291,531 L 1606,56 191,3500 H 800 L 1894,763 2988,3500 h 609 z"
             transform="scale(0.015625)" />
          <path
             id="DejaVuSans-72"
             d="m 2631,2963 q -97,56 -211,82 -114,27 -251,27 -488,0 -749,-317 -261,-317 -261,-911 V 0 H 581 v 3500 h 578 v -544 q 182,319 472,473 291,155 707,155 59,0 131,-8 72,-7 159,-23 z"
             transform="scale(0.015625)" />
          <path
             id="DejaVuSans-75"
             d="m 544,1381 v 2119 h 575 V 1403 q 0,-497 193,-746 194,-248 582,-248 465,0 735,297 271,297 271,810 v 1984 h 575 V 0 H 2900 V 538 Q 2691,219 2414,64 2138,-91 1772,-91 1169,-91 856,284 544,659 544,1381 Z m 1447,2203 z"
             transform="scale(0.015625)" />
          <path
             id="DejaVuSans-76"
             d="M 191,3500 H 800 L 1894,563 2988,3500 h 609 L 2284,0 h -781 z"
             transform="scale(0.015625)" />
          <path
             id="DejaVuSans-61"
             d="m 2194,1759 q -697,0 -966,-159 -269,-159 -269,-544 0,-306 202,-486 202,-179 548,-179 479,0 768,339 289,339 289,901 v 128 z m 1147,238 V 0 H 2766 V 531 Q 2569,213 2275,61 1981,-91 1556,-91 q -537,0 -855,302 -317,302 -317,808 0,590 395,890 396,300 1180,300 h 807 v 57 q 0,397 -261,614 -261,217 -733,217 -300,0 -585,-72 -284,-72 -546,-216 v 532 q 315,122 612,182 297,61 578,61 760,0 1135,-394 375,-393 375,-1193 z"
             transform="scale(0.015625)" />
          <path
             id="DejaVuSans-74"
             d="M 1172,4494 V 3500 H 2356 V 3053 H 1172 V 1153 q 0,-428 117,-550 117,-122 477,-122 h 590 V 0 H 1766 Q 1100,0 847,248 594,497 594,1153 V 3053 H 172 v 447 h 422 v 994 z"
             transform="scale(0.015625)" />
          <path
             id="DejaVuSans-65"
             d="M 3597,1894 V 1613 H 953 q 38,-594 358,-905 320,-311 892,-311 331,0 642,81 311,81 618,244 V 178 Q 3153,47 2828,-22 2503,-91 2169,-91 1331,-91 842,396 353,884 353,1716 q 0,859 464,1363 464,505 1252,505 706,0 1117,-455 411,-454 411,-1235 z m -575,169 q -6,471 -264,752 -258,282 -683,282 -481,0 -770,-272 -289,-272 -333,-766 z"
             transform="scale(0.015625)" />
        </defs>
        <use
           xlink:href="#DejaVuSans-50"
           id="use83"
           x="0"
           y="0"
           width="100%"
           height="100%" />
        <use
           xlink:href="#DejaVuSans-79"
           x="60.302734"
           id="use85"
           y="0"
           width="100%"
           height="100%" />
        <use
           xlink:href="#DejaVuSans-72"
           x="119.48242"
           id="use87"
           y="0"
           width="100%"
           height="100%" />
        <use
           xlink:href="#DejaVuSans-75"
           x="160.5957"
           id="use89"
           y="0"
           width="100%"
           height="100%" />
        <use
           xlink:href="#DejaVuSans-76"
           x="223.97461"
           id="use91"
           y="0"
           width="100%"
           height="100%" />
        <use
           xlink:href="#DejaVuSans-61"
           x="283.1543"
           id="use93"
           y="0"
           width="100%"
           height="100%" />
        <use
           xlink:href="#DejaVuSans-74"
           x="344.43359"
           id="use95"
           y="0"
           width="100%"
           height="100%" />
        <use
           xlink:href="#DejaVuSans-65"
           x="383.64258"
           id="use97"
           y="0"
           width="100%"
           height="100%" />
      </g>
      <!-- L-Aspartate -->
      <g
         transform="matrix(0.1,0,0,-0.1,380.49917,53.42876)"
         id="g130">
        <defs
           id="defs106">
          <path
             id="DejaVuSans-4c"
             d="m 628,4666 h 631 V 531 H 3531 V 0 H 628 Z"
             transform="scale(0.015625)" />
          <path
             id="DejaVuSans-2d"
             d="M 313,2009 H 1997 V 1497 H 313 Z"
             transform="scale(0.015625)" />
          <path
             id="DejaVuSans-41"
             d="M 2188,4044 1331,1722 h 1716 z m -357,622 h 716 L 4325,0 H 3669 L 3244,1197 H 1141 L 716,0 H 50 Z"
             transform="scale(0.015625)" />
          <path
             id="DejaVuSans-73"
             d="m 2834,3397 v -544 q -243,125 -506,187 -262,63 -544,63 -428,0 -642,-131 -214,-131 -214,-394 0,-200 153,-314 153,-114 616,-217 l 197,-44 q 612,-131 870,-370 258,-239 258,-667 0,-488 -386,-773 Q 2250,-91 1575,-91 1294,-91 989,-36 684,19 347,128 v 594 q 319,-166 628,-249 309,-82 613,-82 406,0 624,139 219,139 219,392 0,234 -158,359 -157,125 -692,241 l -200,47 q -534,112 -772,345 -237,233 -237,639 0,494 350,762 350,269 994,269 318,0 599,-47 282,-46 519,-140 z"
             transform="scale(0.015625)" />
          <path
             id="DejaVuSans-70"
             d="M 1159,525 V -1331 H 581 v 4831 h 578 v -531 q 182,312 458,463 277,152 661,152 638,0 1036,-506 399,-506 399,-1331 0,-825 -399,-1332 -398,-506 -1036,-506 -384,0 -661,152 -276,152 -458,464 z m 1957,1222 q 0,634 -261,995 -261,361 -717,361 -457,0 -718,-361 -261,-361 -261,-995 0,-634 261,-995 261,-361 718,-361 456,0 717,361 261,361 261,995 z"
             transform="scale(0.015625)" />
        </defs>
        <use
           xlink:href="#DejaVuSans-4c"
           id="use108"
           x="0"
           y="0"
           width="100%"
           height="100%" />
        <use
           xlink:href="#DejaVuSans-2d"
           x="53.962891"
           id="use110"
           y="0"
           width="100%"
           height="100%" />
        <use
           xlink:href="#DejaVuSans-41"
           x="87.796875"
           id="use112"
           y="0"
           width="100%"
           height="100%" />
        <use
           xlink:href="#DejaVuSans-73"
           x="156.20508"
           id="use114"
           y="0"
           width="100%"
           height="100%" />
        <use
           xlink:href="#DejaVuSans-70"
           x="208.30469"
           id="use116"
           y="0"
           width="100%"
           height="100%" />
        <use
           xlink:href="#DejaVuSans-61"
           x="271.78125"
           id="use118"
           y="0"
           width="100%"
           height="100%" />
        <use
           xlink:href="#DejaVuSans-72"
           x="333.06055"
           id="use120"
           y="0"
           width="100%"
           height="100%" />
        <use
           xlink:href="#DejaVuSans-74"
           x="374.17383"
           id="use122"
           y="0"
           width="100%"
           height="100%" />
        <use
           xlink:href="#DejaVuSans-61"
           x="413.38281"
           id="use124"
           y="0"
           width="100%"
           height="100%" />
        <use
           xlink:href="#DejaVuSans-74"
           x="474.66211"
           id="use126"
           y="0"
           width="100%"
           height="100%" />
        <use
           xlink:href="#DejaVuSans-65"
           x="513.87109"
           id="use128"
           y="0"
           width="100%"
           height="100%" />
      </g>
    </g>
    <g
       id="text_3"
       transform="translate(7.0316276,6.4907332)">
      <!-- Acetate -->
      <g
         transform="matrix(0.1,0,0,-0.1,103.80496,221.93343)"
         id="g150">
        <defs
           id="defs134">
          <path
             id="DejaVuSans-63"
             d="m 3122,3366 v -538 q -244,135 -489,202 -245,67 -495,67 -560,0 -870,-355 -309,-354 -309,-995 0,-641 309,-996 310,-354 870,-354 250,0 495,67 245,67 489,202 V 134 Q 2881,22 2623,-34 2366,-91 2075,-91 1284,-91 818,406 353,903 353,1747 q 0,856 470,1346 471,491 1290,491 265,0 518,-55 253,-54 491,-163 z"
             transform="scale(0.015625)" />
        </defs>
        <use
           xlink:href="#DejaVuSans-41"
           id="use136"
           x="0"
           y="0"
           width="100%"
           height="100%" />
        <use
           xlink:href="#DejaVuSans-63"
           x="66.658203"
           id="use138"
           y="0"
           width="100%"
           height="100%" />
        <use
           xlink:href="#DejaVuSans-65"
           x="121.63867"
           id="use140"
           y="0"
           width="100%"
           height="100%" />
        <use
           xlink:href="#DejaVuSans-74"
           x="183.16211"
           id="use142"
           y="0"
           width="100%"
           height="100%" />
        <use
           xlink:href="#DejaVuSans-61"
           x="222.37109"
           id="use144"
           y="0"
           width="100%"
           height="100%" />
        <use
           xlink:href="#DejaVuSans-74"
           x="283.65039"
           id="use146"
           y="0"
           width="100%"
           height="100%" />
        <use
           xlink:href="#DejaVuSans-65"
           x="322.85938"
           id="use148"
           y="0"
           width="100%"
           height="100%" />
      </g>
      <!-- D-Lactate -->
      <g
         transform="matrix(0.1,0,0,-0.1,103.80496,233.13124)"
         id="g173">
        <defs
           id="defs153">
          <path
             id="DejaVuSans-44"
             d="M 1259,4147 V 519 h 763 q 966,0 1414,437 448,438 448,1382 0,937 -448,1373 -448,436 -1414,436 z m -631,519 h 1297 q 1356,0 1990,-564 635,-564 635,-1764 Q 4550,1131 3912,565 3275,0 1925,0 H 628 Z"
             transform="scale(0.015625)" />
        </defs>
        <use
           xlink:href="#DejaVuSans-44"
           id="use155"
           x="0"
           y="0"
           width="100%"
           height="100%" />
        <use
           xlink:href="#DejaVuSans-2d"
           x="77.001953"
           id="use157"
           y="0"
           width="100%"
           height="100%" />
        <use
           xlink:href="#DejaVuSans-4c"
           x="113.08594"
           id="use159"
           y="0"
           width="100%"
           height="100%" />
        <use
           xlink:href="#DejaVuSans-61"
           x="168.79883"
           id="use161"
           y="0"
           width="100%"
           height="100%" />
        <use
           xlink:href="#DejaVuSans-63"
           x="230.07812"
           id="use163"
           y="0"
           width="100%"
           height="100%" />
        <use
           xlink:href="#DejaVuSans-74"
           x="285.05859"
           id="use165"
           y="0"
           width="100%"
           height="100%" />
        <use
           xlink:href="#DejaVuSans-61"
           x="324.26758"
           id="use167"
           y="0"
           width="100%"
           height="100%" />
        <use
           xlink:href="#DejaVuSans-74"
           x="385.54688"
           id="use169"
           y="0"
           width="100%"
           height="100%" />
        <use
           xlink:href="#DejaVuSans-65"
           x="424.75586"
           id="use171"
           y="0"
           width="100%"
           height="100%" />
      </g>
    </g>
    <g
       id="text_4">
      <g
         clip-path="url(#pcede6799f0)"
         id="g183">
        <!-- 1 -->
        <g
           transform="matrix(0.12,0,0,-0.12,355.92961,56.74001)"
           id="g181">
          <defs
             id="defs177">
            <path
               id="DejaVuSans-31"
               d="M 794,531 H 1825 V 4091 L 703,3866 v 575 l 1116,225 h 631 V 531 H 3481 V 0 H 794 Z"
               transform="scale(0.015625)" />
          </defs>
          <use
             xlink:href="#DejaVuSans-31"
             id="use179"
             x="0"
             y="0"
             width="100%"
             height="100%" />
        </g>
      </g>
    </g>
    <g
       id="text_5">
      <g
         clip-path="url(#pcede6799f0)"
         id="g190">
        <!-- 2 -->
        <g
           transform="matrix(0.12,0,0,-0.12,79.235393,236.44249)"
           id="g188">
          <use
             xlink:href="#DejaVuSans-32"
             id="use186"
             x="0"
             y="0"
             width="100%"
             height="100%" />
        </g>
      </g>
    </g>
  </g>
  <defs
     id="defs198">
    <clipPath
       id="pcede6799f0">
      <rect
         x="54"
         y="34.56"
         width="334.8"
         height="217.44"
         id="rect195" />
    </clipPath>
  </defs>
</svg>
